<?xml version="1.0" encoding="utf-8" standalone="no"?>
<!DOCTYPE svg PUBLIC "-//W3C//DTD SVG 1.1//EN"
  "http://www.w3.org/Graphics/SVG/1.1/DTD/svg11.dtd">
<svg xmlns:xlink="http://www.w3.org/1999/xlink" width="468pt" height="540pt" viewBox="0 0 468 540" xmlns="http://www.w3.org/2000/svg" version="1.1">
 <metadata>
  <rdf:RDF xmlns:dc="http://purl.org/dc/elements/1.1/" xmlns:cc="http://creativecommons.org/ns#" xmlns:rdf="http://www.w3.org/1999/02/22-rdf-syntax-ns#">
   <cc:Work>
    <dc:type rdf:resource="http://purl.org/dc/dcmitype/StillImage"/>
    <dc:date>2025-02-07T16:29:46.063787</dc:date>
    <dc:format>image/svg+xml</dc:format>
    <dc:creator>
     <cc:Agent>
      <dc:title>Matplotlib v3.9.2, https://matplotlib.org/</dc:title>
     </cc:Agent>
    </dc:creator>
   </cc:Work>
  </rdf:RDF>
 </metadata>
 <defs>
  <style type="text/css">*{stroke-linejoin: round; stroke-linecap: butt}</style>
 </defs>
 <g id="figure_1">
  <g id="patch_1">
   <path d="M 0 540
L 468 540
L 468 0
L 0 0
z
" style="fill: #ffffff"/>
  </g>
  <g id="axes_1">
   <g id="patch_2">
    <path d="M 58.5 491.4
L 421.2 491.4
L 421.2 13.5
L 58.5 13.5
z
" style="fill: #ffffff"/>
   </g>
   <g id="PathCollection_1">
    <defs>
     <path id="m98f8bc37e0" d="M 0 2
C 0.530406 2 1.03916 1.789267 1.414214 1.414214
C 1.789267 1.03916 2 0.530406 2 0
C 2 -0.530406 1.789267 -1.03916 1.414214 -1.414214
C 1.03916 -1.789267 0.530406 -2 0 -2
C -0.530406 -2 -1.03916 -1.789267 -1.414214 -1.414214
C -1.789267 -1.03916 -2 -0.530406 -2 0
C -2 0.530406 -1.789267 1.03916 -1.414214 1.414214
C -1.03916 1.789267 -0.530406 2 0 2
z
" style="stroke: #ff0000"/>
    </defs>
    <g clip-path="url(#p1468fdff8d)">
     <use xlink:href="#m98f8bc37e0" x="101.768293" y="401.676546" style="fill: #ff0000; stroke: #ff0000"/>
     <use xlink:href="#m98f8bc37e0" x="111.189072" y="385.004898" style="fill: #ff0000; stroke: #ff0000"/>
     <use xlink:href="#m98f8bc37e0" x="154.524657" y="376.669074" style="fill: #ff0000; stroke: #ff0000"/>
     <use xlink:href="#m98f8bc37e0" x="233.793785" y="364.165337" style="fill: #ff0000; stroke: #ff0000"/>
     <use xlink:href="#m98f8bc37e0" x="260.710297" y="337.073909" style="fill: #ff0000; stroke: #ff0000"/>
     <use xlink:href="#m98f8bc37e0" x="293.010111" y="334.989953" style="fill: #ff0000; stroke: #ff0000"/>
     <use xlink:href="#m98f8bc37e0" x="295.701763" y="262.051492" style="fill: #ff0000; stroke: #ff0000"/>
     <use xlink:href="#m98f8bc37e0" x="323.9641" y="262.051492" style="fill: #ff0000; stroke: #ff0000"/>
     <use xlink:href="#m98f8bc37e0" x="349.534787" y="220.372371" style="fill: #ff0000; stroke: #ff0000"/>
     <use xlink:href="#m98f8bc37e0" x="381.834601" y="68.24358" style="fill: #ff0000; stroke: #ff0000"/>
     <use xlink:href="#m98f8bc37e0" x="403.367811" y="68.24358" style="fill: #ff0000; stroke: #ff0000"/>
    </g>
   </g>
   <g id="PathCollection_2">
    <g clip-path="url(#p1468fdff8d)">
     <use xlink:href="#m98f8bc37e0" x="101.768293" y="401.676546" style="fill: #ff0000; stroke: #ff0000"/>
     <use xlink:href="#m98f8bc37e0" x="111.189072" y="385.004898" style="fill: #ff0000; stroke: #ff0000"/>
     <use xlink:href="#m98f8bc37e0" x="154.524657" y="376.669074" style="fill: #ff0000; stroke: #ff0000"/>
     <use xlink:href="#m98f8bc37e0" x="233.793785" y="364.165337" style="fill: #ff0000; stroke: #ff0000"/>
     <use xlink:href="#m98f8bc37e0" x="260.710297" y="337.073909" style="fill: #ff0000; stroke: #ff0000"/>
     <use xlink:href="#m98f8bc37e0" x="293.010111" y="334.989953" style="fill: #ff0000; stroke: #ff0000"/>
     <use xlink:href="#m98f8bc37e0" x="295.701763" y="262.051492" style="fill: #ff0000; stroke: #ff0000"/>
     <use xlink:href="#m98f8bc37e0" x="323.9641" y="262.051492" style="fill: #ff0000; stroke: #ff0000"/>
     <use xlink:href="#m98f8bc37e0" x="349.534787" y="220.372371" style="fill: #ff0000; stroke: #ff0000"/>
     <use xlink:href="#m98f8bc37e0" x="381.834601" y="68.24358" style="fill: #ff0000; stroke: #ff0000"/>
     <use xlink:href="#m98f8bc37e0" x="403.367811" y="68.24358" style="fill: #ff0000; stroke: #ff0000"/>
    </g>
   </g>
   <g id="PathCollection_3">
    <g clip-path="url(#p1468fdff8d)">
     <use xlink:href="#m98f8bc37e0" x="101.768293" y="401.676546" style="fill: #ff0000; stroke: #ff0000"/>
     <use xlink:href="#m98f8bc37e0" x="111.189072" y="385.004898" style="fill: #ff0000; stroke: #ff0000"/>
     <use xlink:href="#m98f8bc37e0" x="154.524657" y="376.669074" style="fill: #ff0000; stroke: #ff0000"/>
     <use xlink:href="#m98f8bc37e0" x="233.793785" y="364.165337" style="fill: #ff0000; stroke: #ff0000"/>
     <use xlink:href="#m98f8bc37e0" x="260.710297" y="337.073909" style="fill: #ff0000; stroke: #ff0000"/>
     <use xlink:href="#m98f8bc37e0" x="293.010111" y="334.989953" style="fill: #ff0000; stroke: #ff0000"/>
     <use xlink:href="#m98f8bc37e0" x="295.701763" y="262.051492" style="fill: #ff0000; stroke: #ff0000"/>
     <use xlink:href="#m98f8bc37e0" x="323.9641" y="262.051492" style="fill: #ff0000; stroke: #ff0000"/>
     <use xlink:href="#m98f8bc37e0" x="349.534787" y="220.372371" style="fill: #ff0000; stroke: #ff0000"/>
     <use xlink:href="#m98f8bc37e0" x="381.834601" y="68.24358" style="fill: #ff0000; stroke: #ff0000"/>
     <use xlink:href="#m98f8bc37e0" x="403.367811" y="68.24358" style="fill: #ff0000; stroke: #ff0000"/>
    </g>
   </g>
   <g id="PathCollection_4">
    <g clip-path="url(#p1468fdff8d)">
     <use xlink:href="#m98f8bc37e0" x="101.768293" y="401.676546" style="fill: #ff0000; stroke: #ff0000"/>
     <use xlink:href="#m98f8bc37e0" x="111.189072" y="385.004898" style="fill: #ff0000; stroke: #ff0000"/>
     <use xlink:href="#m98f8bc37e0" x="154.524657" y="376.669074" style="fill: #ff0000; stroke: #ff0000"/>
     <use xlink:href="#m98f8bc37e0" x="233.793785" y="364.165337" style="fill: #ff0000; stroke: #ff0000"/>
     <use xlink:href="#m98f8bc37e0" x="260.710297" y="337.073909" style="fill: #ff0000; stroke: #ff0000"/>
     <use xlink:href="#m98f8bc37e0" x="293.010111" y="334.989953" style="fill: #ff0000; stroke: #ff0000"/>
     <use xlink:href="#m98f8bc37e0" x="295.701763" y="262.051492" style="fill: #ff0000; stroke: #ff0000"/>
     <use xlink:href="#m98f8bc37e0" x="323.9641" y="262.051492" style="fill: #ff0000; stroke: #ff0000"/>
     <use xlink:href="#m98f8bc37e0" x="349.534787" y="220.372371" style="fill: #ff0000; stroke: #ff0000"/>
     <use xlink:href="#m98f8bc37e0" x="381.834601" y="68.24358" style="fill: #ff0000; stroke: #ff0000"/>
     <use xlink:href="#m98f8bc37e0" x="403.367811" y="68.24358" style="fill: #ff0000; stroke: #ff0000"/>
    </g>
   </g>
   <g id="matplotlib.axis_1">
    <g id="xtick_1">
     <g id="line2d_1">
      <path d="M 73.640538 491.4
L 73.640538 13.5
" clip-path="url(#p1468fdff8d)" style="fill: none; stroke-dasharray: 1.85,0.8; stroke-dashoffset: 0; stroke: #808080; stroke-opacity: 0.8; stroke-width: 0.5"/>
     </g>
     <g id="line2d_2">
      <defs>
       <path id="m2fe6663f4c" d="M 0 0
L 0 3.5
" style="stroke: #000000; stroke-width: 0.8"/>
      </defs>
      <g>
       <use xlink:href="#m2fe6663f4c" x="73.640538" y="491.4" style="stroke: #000000; stroke-width: 0.8"/>
      </g>
     </g>
     <g id="text_1">
      <!-- 0 -->
      <g transform="translate(70.594913 506.08625) scale(0.11 -0.11)">
       <defs>
        <path id="Cambria-30" d="M 1738 -50
Q 1063 -50 733 481
Q 403 1013 403 2094
Q 403 2669 504 3087
Q 606 3506 789 3779
Q 972 4053 1228 4184
Q 1484 4316 1788 4316
Q 2472 4316 2806 3787
Q 3141 3259 3141 2191
Q 3141 1084 2783 517
Q 2425 -50 1738 -50
z
M 1013 2188
Q 1013 1169 1202 692
Q 1391 216 1788 216
Q 2166 216 2348 664
Q 2531 1113 2531 2053
Q 2531 2772 2437 3217
Q 2344 3663 2176 3856
Q 2009 4050 1772 4050
Q 1556 4050 1411 3922
Q 1266 3794 1177 3553
Q 1088 3313 1050 2967
Q 1013 2622 1013 2188
z
" transform="scale(0.015625)"/>
       </defs>
       <use xlink:href="#Cambria-30"/>
      </g>
     </g>
    </g>
    <g id="xtick_2">
     <g id="line2d_3">
      <path d="M 140.931818 491.4
L 140.931818 13.5
" clip-path="url(#p1468fdff8d)" style="fill: none; stroke-dasharray: 1.85,0.8; stroke-dashoffset: 0; stroke: #808080; stroke-opacity: 0.8; stroke-width: 0.5"/>
     </g>
     <g id="line2d_4">
      <g>
       <use xlink:href="#m2fe6663f4c" x="140.931818" y="491.4" style="stroke: #000000; stroke-width: 0.8"/>
      </g>
     </g>
     <g id="text_2">
      <!-- 5 -->
      <g transform="translate(137.886193 506.08625) scale(0.11 -0.11)">
       <defs>
        <path id="Cambria-35" d="M 469 172
L 469 834
L 847 834
Q 941 516 1130 366
Q 1319 216 1619 216
Q 2034 216 2246 466
Q 2459 716 2459 1213
Q 2459 1544 2346 1761
Q 2234 1978 2043 2075
Q 1853 2172 1600 2172
Q 1388 2172 1234 2145
Q 1081 2119 906 2063
L 656 2209
L 656 4266
L 2378 4266
Q 2484 4266 2531 4283
Q 2578 4300 2606 4336
Q 2634 4372 2672 4472
L 2916 4472
L 2869 3747
L 1072 3747
L 1072 2375
Q 1234 2444 1425 2478
Q 1616 2513 1806 2513
Q 2178 2513 2465 2361
Q 2753 2209 2909 1929
Q 3066 1650 3066 1281
Q 3066 863 2891 563
Q 2716 263 2384 106
Q 2053 -50 1600 -50
Q 1059 -50 469 172
z
" transform="scale(0.015625)"/>
       </defs>
       <use xlink:href="#Cambria-35"/>
      </g>
     </g>
    </g>
    <g id="xtick_3">
     <g id="line2d_5">
      <path d="M 208.223098 491.4
L 208.223098 13.5
" clip-path="url(#p1468fdff8d)" style="fill: none; stroke-dasharray: 1.85,0.8; stroke-dashoffset: 0; stroke: #808080; stroke-opacity: 0.8; stroke-width: 0.5"/>
     </g>
     <g id="line2d_6">
      <g>
       <use xlink:href="#m2fe6663f4c" x="208.223098" y="491.4" style="stroke: #000000; stroke-width: 0.8"/>
      </g>
     </g>
     <g id="text_3">
      <!-- 10 -->
      <g transform="translate(202.131848 506.08625) scale(0.11 -0.11)">
       <defs>
        <path id="Cambria-31" d="M 2172 816
Q 2172 634 2192 542
Q 2213 450 2264 392
Q 2316 334 2412 301
Q 2509 269 2656 251
Q 2803 234 3044 228
L 3044 0
L 734 0
L 734 228
Q 1081 244 1229 270
Q 1378 297 1456 350
Q 1534 403 1570 500
Q 1606 597 1606 816
L 1606 3350
Q 1606 3475 1562 3533
Q 1519 3591 1434 3591
Q 1334 3591 1150 3487
Q 966 3384 694 3203
L 556 3444
L 2019 4316
L 2191 4316
Q 2172 4016 2172 3484
L 2172 816
z
" transform="scale(0.015625)"/>
       </defs>
       <use xlink:href="#Cambria-31"/>
       <use xlink:href="#Cambria-30" x="55.371094"/>
      </g>
     </g>
    </g>
    <g id="xtick_4">
     <g id="line2d_7">
      <path d="M 275.514378 491.4
L 275.514378 13.5
" clip-path="url(#p1468fdff8d)" style="fill: none; stroke-dasharray: 1.85,0.8; stroke-dashoffset: 0; stroke: #808080; stroke-opacity: 0.8; stroke-width: 0.5"/>
     </g>
     <g id="line2d_8">
      <g>
       <use xlink:href="#m2fe6663f4c" x="275.514378" y="491.4" style="stroke: #000000; stroke-width: 0.8"/>
      </g>
     </g>
     <g id="text_4">
      <!-- 15 -->
      <g transform="translate(269.423128 506.08625) scale(0.11 -0.11)">
       <use xlink:href="#Cambria-31"/>
       <use xlink:href="#Cambria-35" x="55.371094"/>
      </g>
     </g>
    </g>
    <g id="xtick_5">
     <g id="line2d_9">
      <path d="M 342.805659 491.4
L 342.805659 13.5
" clip-path="url(#p1468fdff8d)" style="fill: none; stroke-dasharray: 1.85,0.8; stroke-dashoffset: 0; stroke: #808080; stroke-opacity: 0.8; stroke-width: 0.5"/>
     </g>
     <g id="line2d_10">
      <g>
       <use xlink:href="#m2fe6663f4c" x="342.805659" y="491.4" style="stroke: #000000; stroke-width: 0.8"/>
      </g>
     </g>
     <g id="text_5">
      <!-- 20 -->
      <g transform="translate(336.714409 506.08625) scale(0.11 -0.11)">
       <defs>
        <path id="Cambria-32" d="M 2194 500
Q 2347 500 2440 519
Q 2534 538 2590 581
Q 2647 625 2680 695
Q 2713 766 2763 913
L 3028 913
L 2975 0
L 403 0
L 403 150
Q 538 478 766 822
Q 994 1166 1413 1631
Q 1775 2031 1934 2238
Q 2109 2463 2195 2627
Q 2281 2791 2318 2936
Q 2356 3081 2356 3228
Q 2356 3463 2281 3642
Q 2206 3822 2051 3925
Q 1897 4028 1663 4028
Q 1078 4028 875 3378
L 497 3378
L 497 3978
Q 875 4156 1204 4236
Q 1534 4316 1797 4316
Q 2378 4316 2675 4061
Q 2972 3806 2972 3322
Q 2972 3156 2939 3017
Q 2906 2878 2836 2742
Q 2766 2606 2647 2450
Q 2528 2294 2384 2133
Q 2241 1972 1888 1597
Q 1294 969 1016 500
L 2194 500
z
" transform="scale(0.015625)"/>
       </defs>
       <use xlink:href="#Cambria-32"/>
       <use xlink:href="#Cambria-30" x="55.371094"/>
      </g>
     </g>
    </g>
    <g id="xtick_6">
     <g id="line2d_11">
      <path d="M 410.096939 491.4
L 410.096939 13.5
" clip-path="url(#p1468fdff8d)" style="fill: none; stroke-dasharray: 1.85,0.8; stroke-dashoffset: 0; stroke: #808080; stroke-opacity: 0.8; stroke-width: 0.5"/>
     </g>
     <g id="line2d_12">
      <g>
       <use xlink:href="#m2fe6663f4c" x="410.096939" y="491.4" style="stroke: #000000; stroke-width: 0.8"/>
      </g>
     </g>
     <g id="text_6">
      <!-- 25 -->
      <g transform="translate(404.005689 506.08625) scale(0.11 -0.11)">
       <use xlink:href="#Cambria-32"/>
       <use xlink:href="#Cambria-35" x="55.371094"/>
      </g>
     </g>
    </g>
    <g id="text_7">
     <!-- Abfluss [m³/s] -->
     <g transform="translate(205.592734 521.385313) scale(0.11 -0.11)">
      <defs>
       <path id="Cambria-41" d="M 2488 0
L 2488 153
Q 2644 184 2720 221
Q 2797 259 2834 326
Q 2872 394 2872 506
Q 2872 613 2847 736
Q 2822 859 2775 1013
L 2659 1416
L 1203 1416
L 1097 1109
Q 1016 878 991 759
Q 966 641 966 544
Q 966 356 1061 268
Q 1156 181 1353 153
L 1353 0
L 19 0
L 19 153
Q 194 181 323 356
Q 453 531 575 856
L 1878 4316
L 2372 4316
L 3434 831
Q 3509 588 3567 459
Q 3625 331 3706 259
Q 3788 188 3928 153
L 3928 0
L 2488 0
z
M 1288 1688
L 2594 1688
L 2000 3703
L 1288 1688
z
" transform="scale(0.015625)"/>
       <path id="Cambria-62" d="M 1091 2497
L 1103 2494
Q 1322 2722 1467 2825
Q 1613 2928 1767 2983
Q 1922 3038 2106 3038
Q 2441 3038 2680 2867
Q 2919 2697 3048 2356
Q 3178 2016 3178 1522
Q 3178 1013 3023 661
Q 2869 309 2567 129
Q 2266 -50 1853 -50
Q 1622 -50 1417 -8
Q 1213 34 988 141
L 769 -50
L 553 0
L 553 3397
Q 553 3697 548 3815
Q 544 3934 523 4017
Q 503 4100 467 4147
Q 431 4194 370 4222
Q 309 4250 150 4278
L 150 4441
L 906 4472
L 1091 4472
L 1091 2497
z
M 1091 1125
Q 1091 884 1112 742
Q 1134 600 1186 506
Q 1238 413 1336 334
Q 1434 256 1556 226
Q 1678 197 1828 197
Q 2203 197 2397 503
Q 2591 809 2591 1422
Q 2591 2041 2414 2352
Q 2238 2663 1881 2663
Q 1703 2663 1578 2608
Q 1453 2553 1329 2437
Q 1206 2322 1148 2209
Q 1091 2097 1091 1953
L 1091 1125
z
" transform="scale(0.015625)"/>
       <path id="Cambria-66" d="M 1909 2672
L 1163 2672
L 1163 781
Q 1163 572 1183 465
Q 1203 359 1242 304
Q 1281 250 1345 217
Q 1409 184 1550 153
L 1550 0
L 272 0
L 272 153
Q 409 191 468 225
Q 528 259 561 312
Q 594 366 609 466
Q 625 566 625 781
L 625 2672
L 247 2672
L 247 2831
Q 366 2850 405 2861
Q 444 2872 480 2894
Q 516 2916 542 2956
Q 569 2997 589 3076
Q 609 3156 622 3300
Q 650 3641 745 3853
Q 841 4066 1023 4216
Q 1206 4366 1414 4427
Q 1622 4488 1903 4488
Q 2150 4488 2322 4453
L 2322 3888
L 2013 3888
Q 1953 4072 1873 4148
Q 1794 4225 1650 4225
Q 1547 4225 1476 4197
Q 1406 4169 1347 4109
Q 1288 4050 1245 3950
Q 1203 3850 1183 3701
Q 1163 3553 1163 3316
L 1163 2988
L 1909 2988
L 1909 2672
z
" transform="scale(0.015625)"/>
       <path id="Cambria-6c" d="M 1138 781
Q 1138 513 1163 408
Q 1188 303 1258 248
Q 1328 194 1488 153
L 1488 0
L 247 0
L 247 153
Q 403 194 464 237
Q 525 281 551 342
Q 578 403 589 508
Q 600 613 600 781
L 600 3397
Q 600 3697 595 3815
Q 591 3934 570 4017
Q 550 4100 514 4147
Q 478 4194 417 4222
Q 356 4250 197 4278
L 197 4441
L 950 4472
L 1138 4472
L 1138 781
z
" transform="scale(0.015625)"/>
       <path id="Cambria-75" d="M 228 2988
L 1119 2988
L 1119 1397
Q 1119 1031 1147 840
Q 1175 650 1231 553
Q 1288 456 1391 390
Q 1494 325 1675 325
Q 1794 325 1903 372
Q 2013 419 2147 536
Q 2281 653 2339 768
Q 2397 884 2397 1038
L 2397 2209
Q 2397 2388 2387 2478
Q 2378 2569 2356 2623
Q 2334 2678 2304 2712
Q 2275 2747 2220 2775
Q 2166 2803 2044 2834
L 2044 2988
L 2934 2988
L 2934 853
Q 2934 613 2943 506
Q 2953 400 2984 337
Q 3016 275 3081 236
Q 3147 197 3316 163
L 3316 0
L 2600 -31
L 2409 -31
L 2428 481
L 2381 494
Q 2122 213 1886 81
Q 1650 -50 1413 -50
Q 1128 -50 943 62
Q 759 175 668 398
Q 578 622 578 1028
L 578 2209
Q 578 2472 558 2570
Q 538 2669 480 2726
Q 422 2784 228 2834
L 228 2988
z
" transform="scale(0.015625)"/>
       <path id="Cambria-73" d="M 2397 2303
L 2097 2303
Q 2028 2491 1934 2598
Q 1841 2706 1722 2750
Q 1603 2794 1431 2794
Q 1181 2794 1032 2676
Q 884 2559 884 2356
Q 884 2213 943 2119
Q 1003 2025 1128 1944
Q 1253 1863 1569 1728
Q 1888 1591 2061 1475
Q 2234 1359 2332 1206
Q 2431 1053 2431 841
Q 2431 594 2347 425
Q 2263 256 2109 150
Q 1956 44 1745 -3
Q 1534 -50 1284 -50
Q 1022 -50 775 -11
Q 528 28 294 91
L 294 744
L 600 744
Q 684 456 850 326
Q 1016 197 1306 197
Q 1419 197 1526 220
Q 1634 244 1718 298
Q 1803 353 1853 447
Q 1903 541 1903 681
Q 1903 841 1840 941
Q 1778 1041 1647 1123
Q 1516 1206 1184 1347
Q 900 1466 728 1578
Q 556 1691 457 1844
Q 359 1997 359 2206
Q 359 2463 498 2652
Q 638 2841 900 2941
Q 1163 3041 1516 3041
Q 1722 3041 1914 3020
Q 2106 3000 2397 2941
L 2397 2303
z
" transform="scale(0.015625)"/>
       <path id="Cambria-20" transform="scale(0.015625)"/>
       <path id="Cambria-5b" d="M 2106 -1344
L 713 -1344
L 713 4472
L 2106 4472
L 2106 4216
L 1263 4216
L 1263 -1088
L 2106 -1088
L 2106 -1344
z
" transform="scale(0.015625)"/>
       <path id="Cambria-6d" d="M 1147 2506
L 1191 2494
Q 1378 2681 1498 2776
Q 1619 2872 1731 2930
Q 1844 2988 1942 3013
Q 2041 3038 2144 3038
Q 2456 3038 2653 2894
Q 2850 2750 2925 2453
Q 3159 2691 3304 2803
Q 3450 2916 3601 2977
Q 3753 3038 3928 3038
Q 4138 3038 4289 2977
Q 4441 2916 4545 2789
Q 4650 2663 4698 2472
Q 4747 2281 4747 1959
L 4747 781
Q 4747 544 4762 453
Q 4778 363 4808 313
Q 4838 263 4897 227
Q 4956 191 5097 153
L 5097 0
L 3869 0
L 3869 153
Q 3991 191 4044 219
Q 4097 247 4133 297
Q 4169 347 4189 451
Q 4209 556 4209 769
L 4209 1588
Q 4209 1853 4195 2026
Q 4181 2200 4151 2303
Q 4122 2406 4080 2465
Q 4038 2525 3984 2569
Q 3931 2613 3859 2638
Q 3788 2663 3669 2663
Q 3544 2663 3436 2613
Q 3328 2563 3201 2444
Q 3075 2325 3019 2204
Q 2963 2084 2963 1922
L 2963 781
Q 2963 544 2978 453
Q 2994 363 3023 313
Q 3053 263 3112 227
Q 3172 191 3313 153
L 3313 0
L 2084 0
L 2084 153
Q 2206 191 2259 219
Q 2313 247 2348 297
Q 2384 347 2404 451
Q 2425 556 2425 769
L 2425 1588
Q 2425 1866 2409 2041
Q 2394 2216 2361 2322
Q 2328 2428 2276 2493
Q 2225 2559 2172 2593
Q 2119 2628 2047 2645
Q 1975 2663 1884 2663
Q 1756 2663 1643 2605
Q 1531 2547 1414 2437
Q 1297 2328 1237 2209
Q 1178 2091 1178 1953
L 1178 781
Q 1178 603 1187 509
Q 1197 416 1217 362
Q 1238 309 1269 276
Q 1300 244 1358 214
Q 1416 184 1531 153
L 1531 0
L 306 0
L 306 153
Q 425 191 476 219
Q 528 247 565 297
Q 603 347 622 450
Q 641 553 641 772
L 641 2134
Q 641 2334 634 2456
Q 628 2578 590 2651
Q 553 2725 476 2761
Q 400 2797 259 2822
L 259 2988
L 991 3016
L 1181 3016
L 1147 2506
z
" transform="scale(0.015625)"/>
       <path id="Cambria-b3" d="M 391 4593
L 391 5024
Q 894 5230 1306 5230
Q 1525 5230 1711 5170
Q 1897 5111 2009 4983
Q 2122 4855 2122 4661
Q 2122 4493 2045 4369
Q 1969 4246 1836 4155
Q 1703 4064 1494 3977
L 1494 3946
Q 1803 3896 1990 3722
Q 2178 3549 2178 3302
Q 2178 3083 2064 2911
Q 1950 2739 1717 2639
Q 1484 2539 1150 2539
Q 938 2539 734 2576
Q 531 2614 359 2680
L 359 3136
L 644 3136
Q 709 2936 832 2845
Q 956 2755 1163 2755
Q 1434 2755 1573 2880
Q 1713 3005 1713 3252
Q 1713 3514 1528 3651
Q 1344 3789 978 3789
L 791 3789
L 791 4011
Q 1084 4021 1281 4100
Q 1478 4180 1567 4306
Q 1656 4433 1656 4596
Q 1656 4786 1540 4895
Q 1425 5005 1206 5005
Q 1016 5005 881 4902
Q 747 4799 675 4596
L 391 4593
z
" transform="scale(0.015625)"/>
       <path id="Cambria-2f" d="M 2941 4472
L 684 -1344
L 194 -1344
L 2456 4472
L 2941 4472
z
" transform="scale(0.015625)"/>
       <path id="Cambria-5d" d="M 1528 -1344
L 134 -1344
L 134 -1088
L 978 -1088
L 978 4216
L 134 4216
L 134 4472
L 1528 4472
L 1528 -1344
z
" transform="scale(0.015625)"/>
      </defs>
      <use xlink:href="#Cambria-41"/>
      <use xlink:href="#Cambria-62" x="61.554688"/>
      <use xlink:href="#Cambria-66" x="116.291016"/>
      <use xlink:href="#Cambria-6c" x="146.564453"/>
      <use xlink:href="#Cambria-75" x="173.712891"/>
      <use xlink:href="#Cambria-73" x="228.9375"/>
      <use xlink:href="#Cambria-73" x="271.90625"/>
      <use xlink:href="#Cambria-20" x="314.875"/>
      <use xlink:href="#Cambria-5b" x="336.896484"/>
      <use xlink:href="#Cambria-6d" x="371.90625"/>
      <use xlink:href="#Cambria-b3" x="455.109375"/>
      <use xlink:href="#Cambria-2f" x="495.832031"/>
      <use xlink:href="#Cambria-73" x="544.855469"/>
      <use xlink:href="#Cambria-5d" x="587.824219"/>
     </g>
    </g>
   </g>
   <g id="matplotlib.axis_2">
    <g id="ytick_1">
     <g id="line2d_13">
      <path d="M 58.5 416.264238
L 421.2 416.264238
" clip-path="url(#p1468fdff8d)" style="fill: none; stroke-dasharray: 1.85,0.8; stroke-dashoffset: 0; stroke: #808080; stroke-opacity: 0.8; stroke-width: 0.5"/>
     </g>
     <g id="line2d_14">
      <defs>
       <path id="mc19b44b8bc" d="M 0 0
L -3.5 0
" style="stroke: #000000; stroke-width: 0.8"/>
      </defs>
      <g>
       <use xlink:href="#mc19b44b8bc" x="58.5" y="416.264238" style="stroke: #000000; stroke-width: 0.8"/>
      </g>
     </g>
     <g id="text_8">
      <!-- 1.0 -->
      <g transform="translate(37.060781 420.107363) scale(0.11 -0.11)">
       <defs>
        <path id="Cambria-2e" d="M 972 725
L 972 0
L 341 0
L 341 725
L 972 725
z
" transform="scale(0.015625)"/>
       </defs>
       <use xlink:href="#Cambria-31"/>
       <use xlink:href="#Cambria-2e" x="55.371094"/>
       <use xlink:href="#Cambria-30" x="75.878906"/>
      </g>
     </g>
    </g>
    <g id="ytick_2">
     <g id="line2d_15">
      <path d="M 58.5 312.066436
L 421.2 312.066436
" clip-path="url(#p1468fdff8d)" style="fill: none; stroke-dasharray: 1.85,0.8; stroke-dashoffset: 0; stroke: #808080; stroke-opacity: 0.8; stroke-width: 0.5"/>
     </g>
     <g id="line2d_16">
      <g>
       <use xlink:href="#mc19b44b8bc" x="58.5" y="312.066436" style="stroke: #000000; stroke-width: 0.8"/>
      </g>
     </g>
     <g id="text_9">
      <!-- 1.5 -->
      <g transform="translate(37.060781 315.909561) scale(0.11 -0.11)">
       <use xlink:href="#Cambria-31"/>
       <use xlink:href="#Cambria-2e" x="55.371094"/>
       <use xlink:href="#Cambria-35" x="75.878906"/>
      </g>
     </g>
    </g>
    <g id="ytick_3">
     <g id="line2d_17">
      <path d="M 58.5 207.868634
L 421.2 207.868634
" clip-path="url(#p1468fdff8d)" style="fill: none; stroke-dasharray: 1.85,0.8; stroke-dashoffset: 0; stroke: #808080; stroke-opacity: 0.8; stroke-width: 0.5"/>
     </g>
     <g id="line2d_18">
      <g>
       <use xlink:href="#mc19b44b8bc" x="58.5" y="207.868634" style="stroke: #000000; stroke-width: 0.8"/>
      </g>
     </g>
     <g id="text_10">
      <!-- 2.0 -->
      <g transform="translate(37.060781 211.711759) scale(0.11 -0.11)">
       <use xlink:href="#Cambria-32"/>
       <use xlink:href="#Cambria-2e" x="55.371094"/>
       <use xlink:href="#Cambria-30" x="75.878906"/>
      </g>
     </g>
    </g>
    <g id="ytick_4">
     <g id="line2d_19">
      <path d="M 58.5 103.670832
L 421.2 103.670832
" clip-path="url(#p1468fdff8d)" style="fill: none; stroke-dasharray: 1.85,0.8; stroke-dashoffset: 0; stroke: #808080; stroke-opacity: 0.8; stroke-width: 0.5"/>
     </g>
     <g id="line2d_20">
      <g>
       <use xlink:href="#mc19b44b8bc" x="58.5" y="103.670832" style="stroke: #000000; stroke-width: 0.8"/>
      </g>
     </g>
     <g id="text_11">
      <!-- 2.5 -->
      <g transform="translate(37.060781 107.513957) scale(0.11 -0.11)">
       <use xlink:href="#Cambria-32"/>
       <use xlink:href="#Cambria-2e" x="55.371094"/>
       <use xlink:href="#Cambria-35" x="75.878906"/>
      </g>
     </g>
    </g>
    <g id="text_12">
     <!-- UW [m ü. NHN] -->
     <g transform="translate(30.750781 288.570391) rotate(-90) scale(0.11 -0.11)">
      <defs>
       <path id="Cambria-55" d="M 3516 1475
Q 3516 1134 3453 888
Q 3394 653 3275 472
Q 3166 309 3003 195
Q 2841 81 2609 15
Q 2378 -50 2066 -50
Q 1688 -50 1417 34
Q 1147 119 970 311
Q 794 503 716 764
Q 638 1025 638 1428
L 638 3484
Q 638 3728 622 3814
Q 606 3900 576 3950
Q 547 4000 490 4036
Q 434 4072 281 4113
L 281 4266
L 1594 4266
L 1594 4113
Q 1419 4069 1350 4014
Q 1281 3959 1256 3850
Q 1231 3741 1231 3484
L 1231 1272
Q 1231 969 1295 762
Q 1359 556 1475 442
Q 1591 328 1750 276
Q 1909 225 2147 225
Q 2366 225 2531 301
Q 2697 378 2808 534
Q 2919 691 2959 919
Q 3000 1147 3000 1531
L 3000 3484
Q 3000 3756 2973 3856
Q 2947 3956 2886 4009
Q 2825 4063 2634 4113
L 2634 4266
L 3881 4266
L 3881 4113
Q 3700 4066 3633 4009
Q 3566 3953 3541 3847
Q 3516 3741 3516 3484
L 3516 1475
z
" transform="scale(0.015625)"/>
       <path id="Cambria-57" d="M 2941 3469
L 1941 -22
L 1434 -22
L 525 3372
Q 469 3584 422 3718
Q 375 3853 328 3929
Q 281 4006 226 4045
Q 172 4084 69 4113
L 69 4266
L 1406 4266
L 1406 4113
Q 1213 4075 1136 4000
Q 1059 3925 1059 3791
Q 1059 3681 1087 3531
Q 1116 3381 1166 3191
L 1794 722
L 2800 4266
L 3325 4266
L 4141 719
L 4878 3103
Q 5013 3538 5013 3722
Q 5013 3913 4933 3997
Q 4853 4081 4669 4113
L 4669 4266
L 5900 4266
L 5900 4113
Q 5806 4081 5750 4042
Q 5694 4003 5642 3936
Q 5591 3869 5530 3728
Q 5469 3588 5388 3350
L 4250 -22
L 3803 -22
L 2941 3469
z
" transform="scale(0.015625)"/>
       <path id="Cambria-fc" d="M 228 2988
L 1119 2988
L 1119 1397
Q 1119 1031 1147 840
Q 1175 650 1231 553
Q 1288 456 1391 390
Q 1494 325 1675 325
Q 1794 325 1903 372
Q 2013 419 2147 536
Q 2281 653 2339 768
Q 2397 884 2397 1038
L 2397 2209
Q 2397 2388 2387 2478
Q 2378 2569 2356 2623
Q 2334 2678 2304 2712
Q 2275 2747 2220 2775
Q 2166 2803 2044 2834
L 2044 2988
L 2934 2988
L 2934 853
Q 2934 613 2943 506
Q 2953 400 2984 337
Q 3016 275 3081 236
Q 3147 197 3316 163
L 3316 0
L 2600 -31
L 2409 -31
L 2428 481
L 2381 494
Q 2122 213 1886 81
Q 1650 -50 1413 -50
Q 1128 -50 943 62
Q 759 175 668 398
Q 578 622 578 1028
L 578 2209
Q 578 2472 558 2570
Q 538 2669 480 2726
Q 422 2784 228 2834
L 228 2988
z
M 2556 4184
L 2556 3634
L 2034 3634
L 2034 4184
L 2556 4184
z
M 1497 4184
L 1497 3634
L 975 3634
L 975 4184
L 1497 4184
z
" transform="scale(0.015625)"/>
       <path id="Cambria-4e" d="M 2888 1691
Q 3000 1503 3076 1362
Q 3153 1222 3234 1047
L 3275 1047
Q 3259 1238 3246 1805
Q 3234 2372 3234 2828
L 3234 3484
Q 3234 3700 3221 3800
Q 3209 3900 3176 3953
Q 3144 4006 3086 4039
Q 3028 4072 2884 4113
L 2884 4266
L 4009 4266
L 4009 4113
Q 3869 4075 3811 4044
Q 3753 4013 3717 3963
Q 3681 3913 3662 3813
Q 3644 3713 3644 3484
L 3644 -19
L 3253 -19
L 1513 2900
Q 1350 3172 1281 3297
Q 1213 3422 1153 3544
L 1100 3544
Q 1122 3303 1131 2673
Q 1141 2044 1141 1419
L 1141 781
Q 1141 572 1155 475
Q 1169 378 1201 322
Q 1234 266 1298 228
Q 1363 191 1506 153
L 1506 0
L 366 0
L 366 153
Q 559 203 625 264
Q 691 325 711 437
Q 731 550 731 781
L 731 3484
Q 731 3700 715 3798
Q 700 3897 664 3951
Q 628 4006 568 4039
Q 509 4072 366 4113
L 366 4266
L 1344 4266
L 2888 1691
z
" transform="scale(0.015625)"/>
       <path id="Cambria-48" d="M 3650 781
Q 3650 600 3659 509
Q 3669 419 3691 364
Q 3713 309 3744 275
Q 3775 241 3833 212
Q 3891 184 4013 153
L 4013 0
L 2703 0
L 2703 153
Q 2875 197 2944 250
Q 3013 303 3039 412
Q 3066 522 3066 781
L 3066 2091
L 1328 2091
L 1328 781
Q 1328 572 1342 475
Q 1356 378 1389 322
Q 1422 266 1486 228
Q 1550 191 1694 153
L 1694 0
L 378 0
L 378 153
Q 572 203 637 264
Q 703 325 723 437
Q 744 550 744 781
L 744 3484
Q 744 3700 728 3798
Q 713 3897 677 3951
Q 641 4006 581 4039
Q 522 4072 378 4113
L 378 4266
L 1694 4266
L 1694 4113
Q 1556 4078 1495 4043
Q 1434 4009 1398 3957
Q 1363 3906 1345 3803
Q 1328 3700 1328 3484
L 1328 2378
L 3066 2378
L 3066 3484
Q 3066 3756 3039 3856
Q 3013 3956 2950 4009
Q 2888 4063 2703 4113
L 2703 4266
L 4013 4266
L 4013 4113
Q 3838 4069 3769 4014
Q 3700 3959 3675 3850
Q 3650 3741 3650 3484
L 3650 781
z
" transform="scale(0.015625)"/>
      </defs>
      <use xlink:href="#Cambria-55"/>
      <use xlink:href="#Cambria-57" x="64.794922"/>
      <use xlink:href="#Cambria-20" x="156.933594"/>
      <use xlink:href="#Cambria-5b" x="178.955078"/>
      <use xlink:href="#Cambria-6d" x="213.964844"/>
      <use xlink:href="#Cambria-20" x="297.167969"/>
      <use xlink:href="#Cambria-fc" x="319.189453"/>
      <use xlink:href="#Cambria-2e" x="374.414062"/>
      <use xlink:href="#Cambria-20" x="394.921875"/>
      <use xlink:href="#Cambria-4e" x="416.943359"/>
      <use xlink:href="#Cambria-48" x="485.009766"/>
      <use xlink:href="#Cambria-4e" x="553.662109"/>
      <use xlink:href="#Cambria-5d" x="621.728516"/>
     </g>
    </g>
   </g>
   <g id="line2d_21">
    <path d="M 74.986364 399.708685
L 81.715492 398.94606
L 88.44462 398.124769
L 95.173748 397.240301
L 101.902876 396.287794
L 108.632004 395.262016
L 115.361132 394.157329
L 122.09026 392.967664
L 128.819388 391.686484
L 135.548516 390.306748
L 142.277644 388.820876
L 149.006772 387.220702
L 155.7359 385.497435
L 162.465028 383.641605
L 169.194156 381.643014
L 175.923284 379.490682
L 182.652412 377.17278
L 189.38154 374.676573
L 196.110668 371.988345
L 202.839796 369.093324
L 209.568924 365.975602
L 216.298052 362.618049
L 223.02718 359.002215
L 229.756308 355.108232
L 236.485436 350.914703
L 243.214564 346.398585
L 249.943692 341.535064
L 256.67282 336.297414
L 263.401948 330.656857
L 270.131076 324.582398
L 276.860204 318.04066
L 283.589332 310.995696
L 290.31846 303.408797
L 297.047588 295.238272
L 303.776716 286.439228
L 310.505844 276.963314
L 317.234972 266.758462
L 323.9641 255.7686
L 330.693228 243.933338
L 337.422356 231.187645
L 344.151484 217.461486
L 350.880612 202.679438
L 357.60974 186.760276
L 364.338868 169.616528
L 371.067996 151.153991
L 377.797124 131.271219
L 384.526252 109.858957
L 391.25538 86.799551
L 397.984508 61.966292
L 404.713636 35.222727
" clip-path="url(#p1468fdff8d)" style="fill: none; stroke: #000000; stroke-linecap: square"/>
   </g>
   <g id="line2d_22">
    <path d="M 74.986364 469.677273
L 81.715492 462.943759
L 88.44462 456.210246
L 95.173748 449.476733
L 101.902876 442.743219
L 108.632004 436.009706
L 115.361132 429.276193
L 122.09026 422.542679
L 128.819388 415.809166
L 135.548516 409.075652
L 142.277644 402.342139
L 149.006772 395.608626
L 155.7359 388.875112
L 162.465028 382.141599
L 169.194156 375.408086
L 175.923284 368.674572
L 182.652412 361.941059
L 189.38154 355.207546
L 196.110668 348.474032
L 202.839796 341.740519
L 209.568924 335.007005
L 216.298052 328.273492
L 223.02718 321.539979
L 229.756308 314.806465
L 236.485436 308.072952
L 243.214564 301.339439
L 249.943692 294.605925
L 256.67282 287.872412
L 263.401948 281.138899
L 270.131076 274.405385
L 276.860204 267.671872
L 283.589332 260.938358
L 290.31846 254.204845
L 297.047588 247.471332
L 303.776716 240.737818
L 310.505844 234.004305
L 317.234972 227.270792
L 323.9641 220.537278
L 330.693228 213.803765
L 337.422356 207.070252
L 344.151484 200.336738
L 350.880612 193.603225
L 357.60974 186.869711
L 364.338868 180.136198
L 371.067996 173.402685
L 377.797124 166.669171
L 384.526252 159.935658
L 391.25538 153.202145
L 397.984508 146.468631
L 404.713636 139.735118
" clip-path="url(#p1468fdff8d)" style="fill: none; stroke: #008000; stroke-linecap: square"/>
   </g>
   <g id="line2d_23">
    <path d="M 74.986364 360.413604
L 81.715492 366.703054
L 88.44462 372.468648
L 95.173748 377.710386
L 101.902876 382.428267
L 108.632004 386.622292
L 115.361132 390.292461
L 122.09026 393.438774
L 128.819388 396.061231
L 135.548516 398.159832
L 142.277644 399.734577
L 149.006772 400.785465
L 155.7359 401.312497
L 162.465028 401.315674
L 169.194156 400.794994
L 175.923284 399.750458
L 182.652412 398.182065
L 189.38154 396.089817
L 196.110668 393.473713
L 202.839796 390.333752
L 209.568924 386.669935
L 216.298052 382.482262
L 223.02718 377.770733
L 229.756308 372.535348
L 236.485436 366.776107
L 243.214564 360.49301
L 249.943692 353.686056
L 256.67282 346.355246
L 263.401948 338.500581
L 270.131076 330.122059
L 276.860204 321.219681
L 283.589332 311.793446
L 290.31846 301.843356
L 297.047588 291.369409
L 303.776716 280.371607
L 310.505844 268.849948
L 317.234972 256.804433
L 323.9641 244.235062
L 330.693228 231.141835
L 337.422356 217.524752
L 344.151484 203.383812
L 350.880612 188.719017
L 357.60974 173.530365
L 364.338868 157.817857
L 371.067996 141.581493
L 377.797124 124.821273
L 384.526252 107.537197
L 391.25538 89.729264
L 397.984508 71.397476
L 404.713636 52.541831
" clip-path="url(#p1468fdff8d)" style="fill: none; stroke: #a52a2a; stroke-linecap: square"/>
   </g>
   <g id="line2d_24">
    <path d="M 74.986364 401.07265
L 81.715492 398.721256
L 88.44462 396.634159
L 95.173748 394.781047
L 101.902876 393.131609
L 108.632004 391.655535
L 115.361132 390.322512
L 122.09026 389.102229
L 128.819388 387.964376
L 135.548516 386.87864
L 142.277644 385.814711
L 149.006772 384.742278
L 155.7359 383.631028
L 162.465028 382.450651
L 169.194156 381.170835
L 175.923284 379.761269
L 182.652412 378.191642
L 189.38154 376.431643
L 196.110668 374.45096
L 202.839796 372.219282
L 209.568924 369.706298
L 216.298052 366.881696
L 223.02718 363.715165
L 229.756308 360.176394
L 236.485436 356.235072
L 243.214564 351.860887
L 249.943692 347.023528
L 256.67282 341.692683
L 263.401948 335.838042
L 270.131076 329.429293
L 276.860204 322.436125
L 283.589332 314.828227
L 290.31846 306.575286
L 297.047588 297.646993
L 303.776716 288.013036
L 310.505844 277.643103
L 317.234972 266.506883
L 323.9641 254.574065
L 330.693228 241.814337
L 337.422356 228.197389
L 344.151484 213.692909
L 350.880612 198.270586
L 357.60974 181.900107
L 364.338868 164.551164
L 371.067996 146.193443
L 377.797124 126.796633
L 384.526252 106.330424
L 391.25538 84.764504
L 397.984508 62.068562
L 404.713636 38.212286
" clip-path="url(#p1468fdff8d)" style="fill: none; stroke: #0000ff; stroke-linecap: square"/>
   </g>
   <g id="patch_3">
    <path d="M 58.5 491.4
L 58.5 13.5
" style="fill: none; stroke: #000000; stroke-width: 0.8; stroke-linejoin: miter; stroke-linecap: square"/>
   </g>
   <g id="patch_4">
    <path d="M 421.2 491.4
L 421.2 13.5
" style="fill: none; stroke: #000000; stroke-width: 0.8; stroke-linejoin: miter; stroke-linecap: square"/>
   </g>
   <g id="patch_5">
    <path d="M 58.5 491.4
L 421.2 491.4
" style="fill: none; stroke: #000000; stroke-width: 0.8; stroke-linejoin: miter; stroke-linecap: square"/>
   </g>
   <g id="patch_6">
    <path d="M 58.5 13.5
L 421.2 13.5
" style="fill: none; stroke: #000000; stroke-width: 0.8; stroke-linejoin: miter; stroke-linecap: square"/>
   </g>
   <g id="text_13">
    <!-- R² = 0.956 -->
    <g transform="translate(239.85 37.395) scale(0.11 -0.11)">
     <defs>
      <path id="Cambria-52" d="M 1331 1853
L 1331 791
Q 1331 566 1348 464
Q 1366 363 1400 311
Q 1434 259 1493 226
Q 1553 194 1697 153
L 1697 0
L 378 0
L 378 153
Q 572 203 637 264
Q 703 325 723 437
Q 744 550 744 781
L 744 3484
Q 744 3700 728 3798
Q 713 3897 677 3951
Q 641 4006 581 4039
Q 522 4072 378 4113
L 378 4266
L 1925 4266
Q 2656 4266 3018 4000
Q 3381 3734 3381 3175
Q 3381 2747 3145 2447
Q 2909 2147 2438 1978
L 2438 1953
Q 2628 1875 2764 1729
Q 2900 1584 3066 1278
L 3347 766
Q 3469 541 3556 422
Q 3644 303 3734 240
Q 3825 178 3975 153
L 3975 0
L 3109 0
Q 2991 166 2884 356
Q 2778 547 2675 744
L 2400 1266
Q 2275 1503 2195 1615
Q 2116 1728 2048 1773
Q 1981 1819 1904 1836
Q 1828 1853 1675 1853
L 1331 1853
z
M 1331 3978
L 1331 2122
L 1684 2122
Q 1956 2122 2125 2161
Q 2294 2200 2437 2309
Q 2581 2419 2667 2614
Q 2753 2809 2753 3094
Q 2753 3391 2651 3587
Q 2550 3784 2344 3887
Q 2138 3991 1788 3991
Q 1506 3991 1331 3978
z
" transform="scale(0.015625)"/>
      <path id="Cambria-b2" d="M 1581 2933
Q 1691 2933 1748 2944
Q 1806 2955 1840 2977
Q 1875 2999 1898 3033
Q 1922 3068 1969 3183
L 2184 3183
L 2141 2580
L 309 2580
L 309 2699
Q 416 2927 597 3149
Q 778 3371 1022 3605
Q 1313 3883 1434 4025
Q 1556 4168 1615 4294
Q 1675 4421 1675 4549
Q 1675 4761 1554 4883
Q 1434 5005 1209 5005
Q 1016 5005 880 4902
Q 744 4799 672 4599
L 375 4599
L 375 5021
Q 653 5133 887 5181
Q 1122 5230 1303 5230
Q 1550 5230 1711 5177
Q 1872 5124 1969 5038
Q 2066 4952 2105 4836
Q 2144 4721 2144 4599
Q 2144 4446 2081 4313
Q 2019 4180 1876 4025
Q 1734 3871 1372 3543
Q 984 3189 809 2933
L 1581 2933
z
" transform="scale(0.015625)"/>
      <path id="Cambria-3d" d="M 388 2259
L 388 2694
L 3156 2694
L 3156 2259
L 388 2259
z
M 388 963
L 388 1397
L 3156 1397
L 3156 963
L 388 963
z
" transform="scale(0.015625)"/>
      <path id="Cambria-39" d="M 978 122
L 978 275
Q 1416 275 1736 469
Q 2056 663 2251 1042
Q 2447 1422 2513 2038
L 2481 2050
Q 2219 1863 1964 1775
Q 1709 1688 1413 1688
Q 1059 1688 811 1842
Q 563 1997 438 2276
Q 313 2556 313 2931
Q 313 3213 406 3464
Q 500 3716 684 3905
Q 869 4094 1145 4205
Q 1422 4316 1791 4316
Q 2447 4316 2790 3862
Q 3134 3409 3134 2559
Q 3134 1781 2881 1211
Q 2628 641 2172 323
Q 1716 6 1106 -50
L 978 122
z
M 1628 2016
Q 1747 2016 1855 2036
Q 1963 2056 2066 2095
Q 2169 2134 2267 2195
Q 2366 2256 2444 2325
Q 2472 2350 2494 2390
Q 2516 2431 2528 2497
Q 2541 2563 2541 2703
Q 2541 3131 2455 3436
Q 2369 3741 2192 3895
Q 2016 4050 1756 4050
Q 1522 4050 1359 3969
Q 1197 3888 1095 3745
Q 994 3603 947 3411
Q 900 3219 900 2994
Q 900 2528 1090 2272
Q 1281 2016 1628 2016
z
" transform="scale(0.015625)"/>
      <path id="Cambria-36" d="M 2847 4144
L 2847 3991
Q 2366 3991 1994 3784
Q 1622 3578 1376 3178
Q 1131 2778 1031 2228
L 1063 2216
Q 1325 2403 1579 2490
Q 1834 2578 2131 2578
Q 2484 2578 2732 2423
Q 2981 2269 3106 1989
Q 3231 1709 3231 1334
Q 3231 928 3075 617
Q 2919 306 2592 128
Q 2266 -50 1788 -50
Q 1103 -50 754 375
Q 406 800 406 1628
Q 406 2184 581 2668
Q 756 3153 1078 3514
Q 1400 3875 1825 4083
Q 2250 4291 2719 4316
L 2847 4144
z
M 1916 2250
Q 1763 2250 1620 2215
Q 1478 2181 1353 2115
Q 1228 2050 1109 1950
Q 1072 1916 1053 1878
Q 1022 1819 1012 1731
Q 1003 1644 1003 1438
Q 1003 841 1203 528
Q 1403 216 1809 216
Q 2044 216 2203 297
Q 2363 378 2461 520
Q 2559 663 2601 855
Q 2644 1047 2644 1272
Q 2644 1734 2453 1992
Q 2263 2250 1916 2250
z
" transform="scale(0.015625)"/>
     </defs>
     <use xlink:href="#Cambria-52"/>
     <use xlink:href="#Cambria-b2" x="62.109375"/>
     <use xlink:href="#Cambria-20" x="102.832031"/>
     <use xlink:href="#Cambria-3d" x="124.853516"/>
     <use xlink:href="#Cambria-20" x="180.224609"/>
     <use xlink:href="#Cambria-30" x="202.246094"/>
     <use xlink:href="#Cambria-2e" x="257.617188"/>
     <use xlink:href="#Cambria-39" x="278.125"/>
     <use xlink:href="#Cambria-35" x="333.496094"/>
     <use xlink:href="#Cambria-36" x="388.867188"/>
    </g>
   </g>
   <g id="text_14">
    <!-- Interpolation: exponential -->
    <g transform="translate(94.77 37.395) scale(0.11 -0.11)">
     <defs>
      <path id="Cambria-49" d="M 1331 781
Q 1331 572 1345 475
Q 1359 378 1392 322
Q 1425 266 1489 228
Q 1553 191 1697 153
L 1697 0
L 378 0
L 378 153
Q 572 203 637 264
Q 703 325 723 437
Q 744 550 744 781
L 744 3484
Q 744 3700 728 3798
Q 713 3897 677 3951
Q 641 4006 581 4039
Q 522 4072 378 4113
L 378 4266
L 1697 4266
L 1697 4113
Q 1559 4078 1498 4043
Q 1438 4009 1402 3957
Q 1366 3906 1348 3803
Q 1331 3700 1331 3484
L 1331 781
z
" transform="scale(0.015625)"/>
      <path id="Cambria-6e" d="M 3347 0
L 2116 0
L 2116 153
Q 2238 191 2291 219
Q 2344 247 2380 297
Q 2416 347 2436 451
Q 2456 556 2456 769
L 2456 1588
Q 2456 1806 2443 1984
Q 2431 2163 2401 2277
Q 2372 2391 2330 2455
Q 2288 2519 2230 2564
Q 2172 2609 2097 2636
Q 2022 2663 1900 2663
Q 1778 2663 1668 2614
Q 1559 2566 1428 2447
Q 1297 2328 1237 2212
Q 1178 2097 1178 1947
L 1178 781
Q 1178 513 1203 408
Q 1228 303 1298 248
Q 1369 194 1528 153
L 1528 0
L 303 0
L 303 153
Q 425 191 476 219
Q 528 247 564 297
Q 600 347 620 450
Q 641 553 641 772
L 641 2134
Q 641 2334 634 2456
Q 628 2578 590 2651
Q 553 2725 476 2761
Q 400 2797 259 2822
L 259 2988
L 991 3016
L 1181 3016
L 1147 2506
L 1191 2494
Q 1422 2728 1564 2828
Q 1706 2928 1851 2983
Q 1997 3038 2159 3038
Q 2328 3038 2461 2998
Q 2594 2959 2695 2878
Q 2797 2797 2862 2676
Q 2928 2556 2961 2387
Q 2994 2219 2994 1959
L 2994 781
Q 2994 566 3006 469
Q 3019 372 3050 319
Q 3081 266 3140 230
Q 3200 194 3347 153
L 3347 0
z
" transform="scale(0.015625)"/>
      <path id="Cambria-74" d="M 116 2831
Q 272 2856 369 2918
Q 466 2981 520 3079
Q 575 3178 606 3326
Q 638 3475 672 3759
L 1116 3759
L 1116 2988
L 2125 2988
L 2125 2672
L 1116 2672
L 1116 1281
Q 1116 978 1141 798
Q 1166 619 1234 517
Q 1303 416 1390 372
Q 1478 328 1616 328
Q 1741 328 1850 379
Q 1959 431 2066 528
L 2206 359
Q 1984 144 1786 47
Q 1588 -50 1375 -50
Q 972 -50 775 189
Q 578 428 578 938
L 578 2672
L 116 2672
L 116 2831
z
" transform="scale(0.015625)"/>
      <path id="Cambria-65" d="M 2800 531
Q 2600 322 2433 203
Q 2266 84 2066 17
Q 1866 -50 1625 -50
Q 981 -50 653 336
Q 325 722 325 1475
Q 325 1941 492 2297
Q 659 2653 968 2847
Q 1278 3041 1681 3041
Q 1997 3041 2219 2941
Q 2441 2841 2573 2667
Q 2706 2494 2779 2230
Q 2853 1966 2863 1541
L 894 1541
L 894 1484
Q 894 1116 976 864
Q 1059 613 1248 470
Q 1438 328 1741 328
Q 1997 328 2201 423
Q 2406 519 2609 734
L 2800 531
z
M 2275 1800
Q 2256 2138 2190 2352
Q 2125 2566 1994 2680
Q 1863 2794 1650 2794
Q 1328 2794 1136 2536
Q 944 2278 909 1800
L 2275 1800
z
" transform="scale(0.015625)"/>
      <path id="Cambria-72" d="M 1147 2469
L 1191 2459
Q 1363 2669 1509 2789
Q 1656 2909 1826 2975
Q 1997 3041 2213 3041
Q 2394 3041 2541 3022
L 2541 2303
L 2188 2303
Q 2113 2472 2028 2548
Q 1944 2625 1797 2625
Q 1684 2625 1573 2559
Q 1463 2494 1359 2369
Q 1256 2244 1217 2134
Q 1178 2025 1178 1875
L 1178 781
Q 1178 497 1212 389
Q 1247 281 1326 231
Q 1406 181 1566 153
L 1566 0
L 306 0
L 306 153
Q 425 191 476 219
Q 528 247 565 297
Q 603 347 622 450
Q 641 553 641 772
L 641 2134
Q 641 2334 634 2456
Q 628 2578 590 2651
Q 553 2725 476 2761
Q 400 2797 259 2822
L 259 2984
L 991 3016
L 1181 3016
L 1147 2469
z
" transform="scale(0.015625)"/>
      <path id="Cambria-70" d="M 1150 94
L 1150 -566
Q 1150 -769 1164 -869
Q 1178 -969 1214 -1026
Q 1250 -1084 1317 -1121
Q 1384 -1159 1534 -1191
L 1534 -1344
L 259 -1344
L 259 -1191
Q 372 -1159 442 -1126
Q 513 -1094 550 -1030
Q 588 -966 600 -856
Q 613 -747 613 -566
L 613 2116
Q 613 2341 606 2436
Q 600 2531 581 2593
Q 563 2656 527 2697
Q 491 2738 430 2766
Q 369 2794 228 2822
L 228 2988
L 963 3016
L 1153 3016
L 1113 2506
L 1159 2494
Q 1353 2691 1465 2780
Q 1578 2869 1698 2928
Q 1819 2988 1930 3013
Q 2041 3038 2166 3038
Q 2681 3038 2957 2652
Q 3234 2266 3234 1522
Q 3234 1006 3078 654
Q 2922 303 2623 126
Q 2325 -50 1913 -50
Q 1681 -50 1493 -11
Q 1306 28 1150 94
z
M 1150 1125
Q 1150 825 1187 662
Q 1225 500 1320 398
Q 1416 297 1545 247
Q 1675 197 1888 197
Q 2266 197 2456 511
Q 2647 825 2647 1438
Q 2647 2663 1931 2663
Q 1756 2663 1629 2608
Q 1503 2553 1378 2431
Q 1253 2309 1201 2195
Q 1150 2081 1150 1950
L 1150 1125
z
" transform="scale(0.015625)"/>
      <path id="Cambria-6f" d="M 1663 -50
Q 1013 -50 670 333
Q 328 716 328 1466
Q 328 1981 508 2337
Q 688 2694 1000 2867
Q 1313 3041 1713 3041
Q 2381 3041 2725 2652
Q 3069 2263 3069 1534
Q 3069 1016 2897 659
Q 2725 303 2409 126
Q 2094 -50 1663 -50
z
M 919 1531
Q 919 888 1123 542
Q 1328 197 1709 197
Q 1919 197 2066 298
Q 2213 400 2305 572
Q 2397 744 2437 970
Q 2478 1197 2478 1444
Q 2478 1903 2376 2206
Q 2275 2509 2100 2651
Q 1925 2794 1700 2794
Q 1322 2794 1120 2466
Q 919 2138 919 1531
z
" transform="scale(0.015625)"/>
      <path id="Cambria-61" d="M 2109 447
L 2063 459
Q 1791 181 1552 65
Q 1313 -50 1044 -50
Q 806 -50 625 42
Q 444 134 347 301
Q 250 469 250 688
Q 250 1144 701 1392
Q 1153 1641 2056 1681
L 2056 1884
Q 2056 2209 1993 2396
Q 1931 2584 1797 2671
Q 1663 2759 1438 2759
Q 1194 2759 1045 2631
Q 897 2503 822 2247
L 413 2247
L 413 2653
Q 713 2809 913 2882
Q 1113 2956 1313 2998
Q 1513 3041 1719 3041
Q 2028 3041 2215 2942
Q 2403 2844 2497 2641
Q 2591 2438 2591 2028
L 2591 941
Q 2591 709 2594 614
Q 2597 519 2612 437
Q 2628 356 2659 307
Q 2691 259 2752 225
Q 2813 191 2950 153
L 2950 0
L 2094 0
L 2109 447
z
M 2056 1425
Q 1422 1419 1106 1256
Q 791 1094 791 766
Q 791 588 862 484
Q 934 381 1043 342
Q 1153 303 1303 303
Q 1516 303 1689 406
Q 1863 509 1959 668
Q 2056 828 2056 984
L 2056 1425
z
" transform="scale(0.015625)"/>
      <path id="Cambria-69" d="M 1197 4213
L 1197 3606
L 622 3606
L 622 4213
L 1197 4213
z
M 303 153
Q 425 191 476 219
Q 528 247 564 297
Q 600 347 620 450
Q 641 553 641 772
L 641 2134
Q 641 2334 634 2456
Q 628 2578 590 2651
Q 553 2725 476 2761
Q 400 2797 259 2822
L 259 2988
L 988 3016
L 1178 3016
L 1178 781
Q 1178 513 1203 408
Q 1228 303 1298 248
Q 1369 194 1528 153
L 1528 0
L 303 0
L 303 153
z
" transform="scale(0.015625)"/>
      <path id="Cambria-3a" d="M 1156 2822
L 1156 2091
L 531 2091
L 531 2822
L 1156 2822
z
M 1156 725
L 1156 0
L 531 0
L 531 725
L 1156 725
z
" transform="scale(0.015625)"/>
      <path id="Cambria-78" d="M 1625 1803
L 2031 2319
Q 2097 2403 2137 2483
Q 2178 2563 2178 2647
Q 2178 2719 2125 2766
Q 2072 2813 1959 2834
L 1959 2988
L 2981 2988
L 2981 2834
Q 2863 2800 2739 2700
Q 2616 2600 2438 2378
L 1791 1584
L 2503 625
Q 2656 419 2778 309
Q 2900 200 3022 153
L 3022 0
L 1766 0
L 1766 153
Q 2025 184 2025 347
Q 2025 413 2003 472
Q 1981 531 1922 609
L 1469 1241
L 988 616
Q 934 547 904 489
Q 875 431 875 359
Q 875 275 933 220
Q 991 166 1116 153
L 1116 0
L 72 0
L 72 153
Q 175 191 258 247
Q 341 303 427 392
Q 513 481 653 653
L 1303 1459
L 638 2372
Q 500 2559 419 2643
Q 338 2728 269 2772
Q 200 2816 131 2834
L 131 2988
L 1356 2988
L 1356 2834
Q 1109 2797 1109 2641
Q 1109 2569 1142 2497
Q 1175 2425 1244 2338
L 1625 1803
z
" transform="scale(0.015625)"/>
     </defs>
     <use xlink:href="#Cambria-49"/>
     <use xlink:href="#Cambria-6e" x="32.421875"/>
     <use xlink:href="#Cambria-74" x="88.232422"/>
     <use xlink:href="#Cambria-65" x="122.070312"/>
     <use xlink:href="#Cambria-72" x="170.849609"/>
     <use xlink:href="#Cambria-70" x="212.207031"/>
     <use xlink:href="#Cambria-6f" x="267.822266"/>
     <use xlink:href="#Cambria-6c" x="320.898438"/>
     <use xlink:href="#Cambria-61" x="348.046875"/>
     <use xlink:href="#Cambria-74" x="396.875"/>
     <use xlink:href="#Cambria-69" x="430.712891"/>
     <use xlink:href="#Cambria-6f" x="458.496094"/>
     <use xlink:href="#Cambria-6e" x="511.572266"/>
     <use xlink:href="#Cambria-3a" x="567.382812"/>
     <use xlink:href="#Cambria-20" x="593.75"/>
     <use xlink:href="#Cambria-65" x="615.771484"/>
     <use xlink:href="#Cambria-78" x="664.550781"/>
     <use xlink:href="#Cambria-70" x="712.890625"/>
     <use xlink:href="#Cambria-6f" x="768.505859"/>
     <use xlink:href="#Cambria-6e" x="821.582031"/>
     <use xlink:href="#Cambria-65" x="877.392578"/>
     <use xlink:href="#Cambria-6e" x="926.171875"/>
     <use xlink:href="#Cambria-74" x="981.982422"/>
     <use xlink:href="#Cambria-69" x="1015.820312"/>
     <use xlink:href="#Cambria-61" x="1043.603516"/>
     <use xlink:href="#Cambria-6c" x="1092.431641"/>
    </g>
   </g>
   <g id="text_15">
    <!-- R² = 0.764 -->
    <g style="fill: #008000" transform="translate(239.85 61.29) scale(0.11 -0.11)">
     <defs>
      <path id="Cambria-37" d="M 3206 4116
L 1388 -22
L 934 -22
L 934 131
L 2619 3697
L 2619 3744
L 1244 3744
Q 1116 3744 1039 3720
Q 963 3697 911 3653
Q 859 3609 825 3537
Q 791 3466 731 3253
L 463 3253
L 525 4266
L 3206 4266
L 3206 4116
z
" transform="scale(0.015625)"/>
      <path id="Cambria-34" d="M 1613 153
Q 1806 203 1872 264
Q 1938 325 1958 437
Q 1978 550 1978 781
L 1978 1294
L 241 1294
L 241 1528
L 2069 4288
L 2516 4288
L 2516 1597
L 2581 1597
Q 2763 1597 2841 1623
Q 2919 1650 2970 1717
Q 3022 1784 3066 1938
L 3303 1938
L 3266 1294
L 2516 1294
L 2516 781
Q 2516 572 2530 475
Q 2544 378 2576 322
Q 2609 266 2673 228
Q 2738 191 2881 153
L 2881 0
L 1613 0
L 1613 153
z
M 756 1597
L 1978 1597
L 1978 2375
Q 1978 2669 1987 3033
Q 1997 3397 2009 3581
L 1978 3581
L 756 1641
L 756 1597
z
" transform="scale(0.015625)"/>
     </defs>
     <use xlink:href="#Cambria-52"/>
     <use xlink:href="#Cambria-b2" x="62.109375"/>
     <use xlink:href="#Cambria-20" x="102.832031"/>
     <use xlink:href="#Cambria-3d" x="124.853516"/>
     <use xlink:href="#Cambria-20" x="180.224609"/>
     <use xlink:href="#Cambria-30" x="202.246094"/>
     <use xlink:href="#Cambria-2e" x="257.617188"/>
     <use xlink:href="#Cambria-37" x="278.125"/>
     <use xlink:href="#Cambria-36" x="333.496094"/>
     <use xlink:href="#Cambria-34" x="388.867188"/>
    </g>
   </g>
   <g id="text_16">
    <!-- Interpolation: linear -->
    <g style="fill: #008000" transform="translate(94.77 61.29) scale(0.11 -0.11)">
     <use xlink:href="#Cambria-49"/>
     <use xlink:href="#Cambria-6e" x="32.421875"/>
     <use xlink:href="#Cambria-74" x="88.232422"/>
     <use xlink:href="#Cambria-65" x="122.070312"/>
     <use xlink:href="#Cambria-72" x="170.849609"/>
     <use xlink:href="#Cambria-70" x="212.207031"/>
     <use xlink:href="#Cambria-6f" x="267.822266"/>
     <use xlink:href="#Cambria-6c" x="320.898438"/>
     <use xlink:href="#Cambria-61" x="348.046875"/>
     <use xlink:href="#Cambria-74" x="396.875"/>
     <use xlink:href="#Cambria-69" x="430.712891"/>
     <use xlink:href="#Cambria-6f" x="458.496094"/>
     <use xlink:href="#Cambria-6e" x="511.572266"/>
     <use xlink:href="#Cambria-3a" x="567.382812"/>
     <use xlink:href="#Cambria-20" x="593.75"/>
     <use xlink:href="#Cambria-6c" x="615.771484"/>
     <use xlink:href="#Cambria-69" x="642.919922"/>
     <use xlink:href="#Cambria-6e" x="670.703125"/>
     <use xlink:href="#Cambria-65" x="726.513672"/>
     <use xlink:href="#Cambria-61" x="775.292969"/>
     <use xlink:href="#Cambria-72" x="824.121094"/>
    </g>
   </g>
   <g id="text_17">
    <!-- R² = 0.952 -->
    <g style="fill: #a52a2a" transform="translate(239.85 85.185) scale(0.11 -0.11)">
     <use xlink:href="#Cambria-52"/>
     <use xlink:href="#Cambria-b2" x="62.109375"/>
     <use xlink:href="#Cambria-20" x="102.832031"/>
     <use xlink:href="#Cambria-3d" x="124.853516"/>
     <use xlink:href="#Cambria-20" x="180.224609"/>
     <use xlink:href="#Cambria-30" x="202.246094"/>
     <use xlink:href="#Cambria-2e" x="257.617188"/>
     <use xlink:href="#Cambria-39" x="278.125"/>
     <use xlink:href="#Cambria-35" x="333.496094"/>
     <use xlink:href="#Cambria-32" x="388.867188"/>
    </g>
   </g>
   <g id="text_18">
    <!-- Interpolation: quadratic -->
    <g style="fill: #a52a2a" transform="translate(94.77 85.185) scale(0.11 -0.11)">
     <defs>
      <path id="Cambria-71" d="M 3300 -1344
L 2025 -1344
L 2025 -1191
Q 2175 -1159 2242 -1121
Q 2309 -1084 2345 -1026
Q 2381 -969 2395 -870
Q 2409 -772 2409 -566
L 2409 513
Q 2241 322 2095 208
Q 1950 94 1772 22
Q 1594 -50 1394 -50
Q 878 -50 601 334
Q 325 719 325 1453
Q 325 1972 504 2330
Q 684 2688 1006 2864
Q 1328 3041 1750 3041
Q 1972 3041 2150 2995
Q 2328 2950 2516 2850
L 2734 3041
L 2947 2991
L 2947 -566
Q 2947 -750 2961 -858
Q 2975 -966 3011 -1028
Q 3047 -1091 3117 -1125
Q 3188 -1159 3300 -1191
L 3300 -1344
z
M 2409 1863
Q 2409 2153 2371 2312
Q 2334 2472 2243 2583
Q 2153 2694 2031 2742
Q 1909 2791 1744 2791
Q 1341 2791 1127 2466
Q 913 2141 913 1550
Q 913 950 1086 637
Q 1259 325 1606 325
Q 1738 325 1830 348
Q 1922 372 2011 425
Q 2100 478 2192 568
Q 2284 659 2325 732
Q 2366 806 2387 903
Q 2409 1000 2409 1153
L 2409 1863
z
" transform="scale(0.015625)"/>
      <path id="Cambria-64" d="M 2413 3397
Q 2413 3697 2408 3815
Q 2403 3934 2383 4017
Q 2363 4100 2327 4147
Q 2291 4194 2230 4222
Q 2169 4250 2009 4278
L 2009 4441
L 2766 4472
L 2950 4472
L 2950 853
Q 2950 609 2959 504
Q 2969 400 3000 337
Q 3031 275 3098 236
Q 3166 197 3334 163
L 3334 0
L 2597 -31
L 2409 -31
L 2447 481
L 2400 494
Q 2203 284 2058 179
Q 1913 75 1748 12
Q 1584 -50 1397 -50
Q 884 -50 606 339
Q 328 728 328 1463
Q 328 1975 509 2333
Q 691 2691 998 2866
Q 1306 3041 1691 3041
Q 1897 3041 2065 3008
Q 2234 2975 2413 2900
L 2413 3397
z
M 2413 1853
Q 2413 2097 2391 2244
Q 2369 2391 2317 2491
Q 2266 2591 2178 2659
Q 2091 2728 1986 2759
Q 1881 2791 1734 2791
Q 1334 2791 1125 2470
Q 916 2150 916 1550
Q 916 950 1087 637
Q 1259 325 1609 325
Q 1747 325 1837 348
Q 1928 372 2015 423
Q 2103 475 2193 565
Q 2284 656 2326 731
Q 2369 806 2391 903
Q 2413 1000 2413 1153
L 2413 1853
z
" transform="scale(0.015625)"/>
      <path id="Cambria-63" d="M 2631 2916
L 2631 2263
L 2234 2263
Q 2181 2466 2103 2583
Q 2025 2700 1922 2747
Q 1819 2794 1666 2794
Q 1447 2794 1278 2653
Q 1109 2513 1011 2225
Q 913 1938 913 1522
Q 913 1256 950 1036
Q 988 816 1078 659
Q 1169 503 1319 415
Q 1469 328 1691 328
Q 1906 328 2092 412
Q 2278 497 2478 709
L 2656 503
Q 2497 328 2375 233
Q 2253 138 2114 73
Q 1975 9 1839 -20
Q 1703 -50 1544 -50
Q 953 -50 640 342
Q 328 734 328 1475
Q 328 1938 503 2295
Q 678 2653 993 2847
Q 1309 3041 1722 3041
Q 1978 3041 2195 3011
Q 2413 2981 2631 2916
z
" transform="scale(0.015625)"/>
     </defs>
     <use xlink:href="#Cambria-49"/>
     <use xlink:href="#Cambria-6e" x="32.421875"/>
     <use xlink:href="#Cambria-74" x="88.232422"/>
     <use xlink:href="#Cambria-65" x="122.070312"/>
     <use xlink:href="#Cambria-72" x="170.849609"/>
     <use xlink:href="#Cambria-70" x="212.207031"/>
     <use xlink:href="#Cambria-6f" x="267.822266"/>
     <use xlink:href="#Cambria-6c" x="320.898438"/>
     <use xlink:href="#Cambria-61" x="348.046875"/>
     <use xlink:href="#Cambria-74" x="396.875"/>
     <use xlink:href="#Cambria-69" x="430.712891"/>
     <use xlink:href="#Cambria-6f" x="458.496094"/>
     <use xlink:href="#Cambria-6e" x="511.572266"/>
     <use xlink:href="#Cambria-3a" x="567.382812"/>
     <use xlink:href="#Cambria-20" x="593.75"/>
     <use xlink:href="#Cambria-71" x="615.771484"/>
     <use xlink:href="#Cambria-75" x="670.458984"/>
     <use xlink:href="#Cambria-61" x="725.683594"/>
     <use xlink:href="#Cambria-64" x="774.511719"/>
     <use xlink:href="#Cambria-72" x="829.980469"/>
     <use xlink:href="#Cambria-61" x="871.337891"/>
     <use xlink:href="#Cambria-74" x="920.166016"/>
     <use xlink:href="#Cambria-69" x="954.003906"/>
     <use xlink:href="#Cambria-63" x="981.787109"/>
    </g>
   </g>
   <g id="text_19">
    <!-- R² = 0.959 -->
    <g style="fill: #0000ff" transform="translate(239.85 109.08) scale(0.11 -0.11)">
     <use xlink:href="#Cambria-52"/>
     <use xlink:href="#Cambria-b2" x="62.109375"/>
     <use xlink:href="#Cambria-20" x="102.832031"/>
     <use xlink:href="#Cambria-3d" x="124.853516"/>
     <use xlink:href="#Cambria-20" x="180.224609"/>
     <use xlink:href="#Cambria-30" x="202.246094"/>
     <use xlink:href="#Cambria-2e" x="257.617188"/>
     <use xlink:href="#Cambria-39" x="278.125"/>
     <use xlink:href="#Cambria-35" x="333.496094"/>
     <use xlink:href="#Cambria-39" x="388.867188"/>
    </g>
   </g>
   <g id="text_20">
    <!-- Interpolation: cubic -->
    <g style="fill: #0000ff" transform="translate(94.77 109.08) scale(0.11 -0.11)">
     <use xlink:href="#Cambria-49"/>
     <use xlink:href="#Cambria-6e" x="32.421875"/>
     <use xlink:href="#Cambria-74" x="88.232422"/>
     <use xlink:href="#Cambria-65" x="122.070312"/>
     <use xlink:href="#Cambria-72" x="170.849609"/>
     <use xlink:href="#Cambria-70" x="212.207031"/>
     <use xlink:href="#Cambria-6f" x="267.822266"/>
     <use xlink:href="#Cambria-6c" x="320.898438"/>
     <use xlink:href="#Cambria-61" x="348.046875"/>
     <use xlink:href="#Cambria-74" x="396.875"/>
     <use xlink:href="#Cambria-69" x="430.712891"/>
     <use xlink:href="#Cambria-6f" x="458.496094"/>
     <use xlink:href="#Cambria-6e" x="511.572266"/>
     <use xlink:href="#Cambria-3a" x="567.382812"/>
     <use xlink:href="#Cambria-20" x="593.75"/>
     <use xlink:href="#Cambria-63" x="615.771484"/>
     <use xlink:href="#Cambria-75" x="659.863281"/>
     <use xlink:href="#Cambria-62" x="715.087891"/>
     <use xlink:href="#Cambria-69" x="769.824219"/>
     <use xlink:href="#Cambria-63" x="797.607422"/>
    </g>
   </g>
  </g>
 </g>
 <defs>
  <clipPath id="p1468fdff8d">
   <rect x="58.5" y="13.5" width="362.7" height="477.9"/>
  </clipPath>
 </defs>
</svg>
